<?xml version="1.0" standalone="no"?>
<!DOCTYPE svg PUBLIC "-//W3C//DTD SVG 20010904//EN"
 "http://www.w3.org/TR/2001/REC-SVG-20010904/DTD/svg10.dtd">
<svg version="1.0" xmlns="http://www.w3.org/2000/svg"
 width="640.000000pt" height="1280.000000pt" viewBox="0 0 640.000000 1280.000000"
 preserveAspectRatio="xMidYMid meet">
<metadata>
Created by potrace 1.15, written by Peter Selinger 2001-2017
</metadata>
<g transform="translate(0.000000,1280.000000) scale(0.100000,-0.100000)"
fill="#000000" stroke="none">
<path d="M3366 12788 c-4 -11 -57 -768 -56 -790 0 -5 32 -8 70 -8 70 0 70 0
70 28 0 15 -7 167 -15 337 -14 304 -22 405 -32 432 -6 16 -32 17 -37 1z"/>
<path d="M3295 11917 c-49 -24 -140 -110 -164 -156 -15 -27 -12 -26 53 21 117
84 278 69 395 -37 l41 -37 0 49 c0 44 -4 53 -37 85 -99 94 -196 120 -288 75z"/>
<path d="M3370 11682 l-235 -3 -48 -42 -48 -42 3 -62 3 -63 58 50 59 50 209 0
209 0 1 -57 c1 -32 4 -82 7 -112 l7 -55 37 55 c21 30 45 63 53 75 8 11 18 41
21 68 7 45 5 49 -32 87 -21 22 -46 44 -54 47 -8 4 -121 6 -250 4z"/>
<path d="M3314 11510 l-122 -5 98 -102 98 -102 78 99 c44 55 80 104 82 110 4
10 -15 10 -234 0z"/>
<path d="M3050 11335 c0 -106 8 -120 55 -89 49 32 50 48 5 113 -22 33 -44 63
-50 66 -6 4 -10 -28 -10 -90z"/>
<path d="M3643 11348 l-50 -83 5 -165 c5 -166 13 -178 26 -40 6 59 13 81 35
110 26 32 29 44 33 148 3 61 5 112 3 112 -1 0 -24 -37 -52 -82z"/>
<path d="M3357 11263 c-13 -3 -16 -10 -12 -21 61 -155 -3 -1479 -185 -3847
-49 -627 -108 -1364 -115 -1422 l-5 -43 256 0 c240 0 256 1 249 18 -36 95 -72
455 -95 967 -26 576 -32 982 -37 2613 -5 1603 -7 1742 -22 1741 -9 -1 -24 -3
-34 -6z"/>
<path d="M3138 11225 c-30 -20 -38 -33 -42 -67 -6 -42 -121 -1557 -151 -1976
-8 -117 -26 -311 -40 -430 -82 -697 -287 -2340 -330 -2639 -14 -94 -25 -176
-25 -181 0 -5 26 -12 58 -15 31 -4 78 -9 105 -13 l47 -7 0 55 c0 30 3 57 6 61
3 3 18 -5 32 -19 l27 -24 58 58 c32 31 76 78 98 104 l39 46 -42 61 c-23 34
-46 61 -51 61 -5 0 -34 -19 -65 -43 -82 -63 -82 -63 -82 -27 0 24 8 36 40 58
21 15 39 31 40 36 0 5 -14 31 -31 59 -30 49 -30 52 -24 134 l7 83 45 -62 c24
-35 47 -64 51 -66 4 -1 43 34 86 77 l79 80 -18 28 c-10 15 -38 56 -62 91 l-44
62 -66 -57 -66 -58 5 42 c4 29 18 56 42 84 l35 42 -30 42 -30 42 10 119 c6 65
11 122 11 126 0 6 34 32 104 80 5 4 -11 30 -37 61 -52 60 -52 63 -41 200 l7
77 58 37 c33 21 59 41 59 45 0 3 -22 23 -50 43 -49 36 -50 38 -49 88 1 29 4
77 8 108 6 60 4 57 130 156 3 2 -21 30 -52 61 l-58 58 7 73 7 73 56 44 c31 24
65 50 76 59 20 15 20 15 -2 34 -12 10 -42 36 -68 58 l-45 41 6 72 7 72 58 42
c32 22 59 43 59 46 0 3 -23 37 -50 75 -49 67 -51 72 -45 120 6 45 12 55 63
102 l57 51 -47 49 c-46 46 -48 52 -48 104 0 49 3 56 28 71 15 10 40 28 56 41
l30 24 -47 54 c-70 79 -65 138 17 200 25 19 46 37 46 41 0 3 -20 30 -45 59
-41 48 -44 56 -39 93 4 25 14 47 27 56 65 47 63 41 24 101 -32 48 -35 59 -30
102 5 42 11 51 50 79 l43 32 -40 41 c-38 39 -40 44 -34 83 5 32 14 46 40 64
19 13 34 26 34 29 0 3 -13 25 -30 47 -45 63 -39 119 16 145 19 9 34 20 34 25
0 5 -13 21 -30 37 -45 43 -42 90 7 132 l38 31 -33 35 c-30 31 -33 38 -26 71 4
26 14 41 30 48 29 13 29 15 5 55 -11 17 -21 55 -23 83 l-3 50 -37 -25z"/>
<path d="M3586 10730 c3 -124 9 -371 14 -550 5 -179 14 -485 20 -680 40 -1362
39 -1342 75 -2495 12 -398 29 -864 37 -1037 l2 -38 144 0 144 0 -6 63 c-3 34
-33 371 -66 750 -33 378 -87 994 -120 1370 -33 375 -100 1152 -149 1727 -50
575 -92 1061 -95 1080 -2 19 -2 -66 0 -190z"/>
<path d="M3077 8725 c-40 -33 -67 -63 -67 -74 0 -11 -2 -26 -5 -33 -4 -10 16
-30 55 -57 66 -47 65 -49 51 49 -7 45 -4 64 15 112 12 32 21 58 20 58 -1 0
-32 -25 -69 -55z"/>
<path d="M3058 8361 c-100 -73 -102 -89 -20 -173 l59 -61 31 19 c18 10 32 21
32 24 0 3 -20 18 -45 33 -25 16 -45 30 -45 30 0 1 16 42 35 91 19 49 34 90 32
91 -1 1 -37 -23 -79 -54z"/>
<path d="M2968 7976 c-14 -10 -18 -28 -18 -77 0 -64 1 -65 48 -112 l49 -48 46
54 46 54 -50 6 c-27 3 -53 8 -58 11 -4 3 -14 33 -21 66 -7 33 -15 60 -19 60
-3 0 -14 -7 -23 -14z"/>
<path d="M2912 7506 c5 -56 11 -72 44 -115 22 -28 44 -50 49 -50 10 -1 105 86
105 95 0 2 -19 4 -43 4 -42 0 -43 1 -82 65 -27 43 -46 65 -59 65 -17 0 -18 -6
-14 -64z"/>
<path d="M2897 7125 c-12 -84 -8 -118 21 -172 15 -29 30 -53 34 -53 3 0 38 37
77 83 l71 82 -63 7 c-63 7 -68 10 -115 75 l-19 26 -6 -48z"/>
<path d="M2365 5796 l-90 -22 4 -44 c6 -84 7 -84 91 -33 l75 46 110 -1 c61 -1
445 -7 855 -13 l745 -12 74 -28 c41 -16 76 -27 77 -26 2 2 6 21 10 44 l6 41
-81 27 -82 27 -682 8 c-966 13 -1003 12 -1112 -14z"/>
<path d="M2380 5617 c0 -2 7 -17 15 -34 15 -29 17 -30 107 -37 51 -3 449 -9
884 -13 l792 -6 16 30 15 31 -192 6 c-362 12 -1637 30 -1637 23z"/>
<path d="M2460 5497 c-13 -7 -28 -24 -32 -37 -56 -186 -457 -1323 -716 -2026
l-30 -82 46 -6 c24 -3 100 -6 166 -6 l122 0 27 123 c16 67 33 130 40 139 7 9
32 42 56 73 l45 57 -19 93 c-13 68 -16 101 -8 117 9 22 11 21 34 -20 13 -23
26 -42 29 -42 5 0 50 123 50 137 0 5 -18 19 -40 33 -22 14 -40 29 -40 33 0 5
23 7 52 5 l51 -3 12 45 c6 25 15 60 18 78 l7 33 -56 -31 c-30 -18 -57 -30 -59
-28 -3 2 0 21 6 41 9 33 18 42 67 65 31 15 58 27 60 28 2 1 -17 21 -42 45
l-46 44 11 42 11 43 46 -40 c25 -22 47 -38 49 -36 10 10 32 111 25 117 -4 4
-27 11 -52 16 -35 7 -45 13 -45 28 0 21 1 22 88 11 l54 -7 6 33 c3 18 9 48 13
67 l7 34 -78 -41 -77 -41 6 31 c3 17 6 36 6 43 0 8 34 35 76 62 l76 48 -52 46
c-46 40 -51 48 -45 75 13 60 14 60 70 4 30 -30 56 -52 58 -49 11 12 35 99 28
103 -3 3 -35 8 -69 12 -70 8 -69 4 -47 101 26 111 19 103 91 103 35 0 64 2 64
5 0 2 -10 24 -21 49 l-22 44 -33 -14 c-27 -11 -34 -12 -34 -2 1 19 28 129 33
135 3 2 15 -10 27 -27 l23 -32 43 43 c49 48 47 52 -28 63 -32 5 -48 12 -48 22
0 17 -27 18 -60 1z"/>
<path d="M2781 5423 c18 -27 33 -49 35 -51 1 -2 20 16 42 40 l41 43 -47 7
c-26 3 -60 7 -75 7 l-28 1 32 -47z"/>
<path d="M4047 5459 c-38 -4 -71 -9 -73 -11 -2 -2 10 -38 26 -79 33 -84 36
-111 15 -129 -22 -18 -18 -30 9 -30 13 0 28 -6 34 -12 5 -7 148 -431 317 -943
169 -511 311 -933 314 -938 4 -4 36 -1 72 6 54 11 63 16 61 33 -2 10 -95 309
-207 664 -235 747 -370 1178 -417 1337 -37 128 -22 117 -151 102z"/>
<path d="M3077 5408 l52 -52 49 45 c28 24 50 47 51 52 1 4 -45 7 -101 7 l-103
0 52 -52z"/>
<path d="M3216 5385 l-49 -42 20 -29 c28 -38 72 -79 78 -72 3 3 4 46 3 96 l-3
90 -49 -43z"/>
<path d="M2696 5399 c-3 -13 -7 -50 -11 -83 l-5 -58 40 32 c22 17 42 35 45 40
4 6 -35 63 -60 89 -2 2 -6 -7 -9 -20z"/>
<path d="M3310 5325 l0 -98 48 43 c26 24 49 45 51 47 4 3 -79 96 -91 101 -4 2
-8 -40 -8 -93z"/>
<path d="M2987 5394 c-3 -11 -8 -39 -12 -64 -4 -25 -9 -53 -12 -63 -4 -14 8
-10 51 19 31 20 56 40 56 43 0 4 -18 24 -39 45 -34 33 -40 36 -44 20z"/>
<path d="M3551 5369 l-45 -38 45 -39 44 -40 3 39 c2 21 2 57 0 78 l-3 39 -44
-39z"/>
<path d="M2608 5366 l-37 -32 26 -37 c14 -20 29 -37 33 -37 7 0 24 130 18 135
-2 2 -20 -11 -40 -29z"/>
<path d="M2879 5366 l-37 -31 33 -39 32 -38 6 68 c4 37 6 69 4 70 -1 1 -18
-12 -38 -30z"/>
<path d="M2750 5265 l-44 -45 67 0 c37 0 67 2 67 5 0 13 -33 85 -39 85 -4 0
-27 -20 -51 -45z"/>
<path d="M3053 5266 l-52 -43 52 -7 c65 -7 157 -8 157 0 0 11 -84 94 -94 93
-6 0 -34 -19 -63 -43z"/>
<path d="M3397 5245 l-49 -45 116 0 c64 0 116 2 116 4 0 9 -110 86 -122 86 -7
-1 -35 -21 -61 -45z"/>
<path d="M3746 5248 c-15 -21 -26 -41 -23 -44 2 -3 38 -4 78 -2 l73 3 -50 41
-49 42 -29 -40z"/>
<path d="M2780 4972 l-12 -57 -84 -50 c-46 -27 -84 -52 -84 -55 0 -3 25 -30
55 -60 43 -42 55 -61 55 -85 0 -62 -14 -60 -82 14 l-66 71 -21 -69 c-12 -38
-21 -71 -21 -74 0 -3 39 -8 86 -12 l86 -8 -6 -36 c-17 -105 -11 -99 -219 -233
-6 -3 21 -36 62 -75 l73 -68 -29 -120 -29 -120 -69 -41 c-39 -22 -92 -53 -119
-69 l-48 -27 83 -84 84 -84 -37 -143 c-27 -104 -33 -144 -25 -149 7 -4 33 -8
58 -8 40 0 48 3 52 23 25 97 367 1661 364 1663 -1 1 -23 4 -48 7 l-46 6 -13
-57z"/>
<path d="M2601 4953 c-6 -31 -9 -58 -7 -60 6 -6 165 100 166 110 0 4 -33 7
-74 7 l-73 0 -12 -57z"/>
<path d="M3660 4988 c1 -2 95 -379 209 -838 l208 -835 64 -3 c35 -2 96 -1 136
3 l72 7 -44 123 -43 123 24 23 24 22 -54 61 c-47 54 -59 78 -108 214 -30 83
-54 152 -53 152 1 0 19 -7 40 -16 20 -8 39 -13 42 -10 3 2 -5 48 -18 102 l-22
97 -19 -26 c-10 -14 -27 -36 -37 -48 l-18 -22 -15 44 -15 45 33 39 c19 22 34
43 34 46 0 3 -30 26 -68 51 -61 41 -69 50 -84 98 -10 30 -16 55 -15 57 2 1 37
-22 77 -52 41 -29 76 -53 77 -51 2 1 -7 30 -18 64 l-21 62 -64 0 c-60 0 -65 2
-74 26 -6 14 -10 27 -10 30 0 2 30 4 66 4 l67 0 -7 33 c-4 17 -9 49 -13 70 -3
20 -9 37 -13 37 -5 0 -33 -21 -64 -46 l-56 -45 -10 26 c-15 39 -14 40 45 91
30 26 55 51 55 55 0 4 -43 31 -95 59 -76 41 -98 58 -109 84 -10 25 -22 35 -46
40 -33 6 -60 8 -60 4z"/>
<path d="M3800 4986 c0 -5 146 -96 154 -96 3 0 6 23 6 50 l0 50 -80 0 c-44 0
-80 -2 -80 -4z"/>
<path d="M2947 4780 c-4 -50 -10 -108 -13 -130 l-7 -40 109 0 c60 0 213 -3
340 -7 l231 -6 6 44 c16 112 19 169 10 169 -5 0 -15 -26 -22 -57 -7 -32 -15
-66 -17 -75 -5 -17 -27 -18 -289 -18 l-283 0 -6 40 c-3 22 -9 58 -12 80 l-6
40 219 1 c120 0 214 2 208 4 -9 4 -427 45 -452 45 -5 0 -13 -40 -16 -90z"/>
<path d="M3250 4529 c-135 -9 -262 -18 -283 -18 -34 -1 -38 -4 -35 -23 l3 -23
352 -9 352 -8 5 -27 c3 -14 33 -213 66 -441 33 -228 67 -458 75 -511 8 -53 15
-100 15 -104 0 -8 147 -2 155 7 3 2 -66 268 -152 591 l-156 587 -76 -1 c-42
-1 -186 -10 -321 -20z"/>
<path d="M2885 4498 c-2 -7 -56 -256 -120 -553 -64 -297 -119 -548 -121 -557
-5 -15 2 -18 44 -18 l49 0 21 73 c31 102 48 193 77 390 22 152 75 621 75 662
0 18 -19 20 -25 3z"/>
<path d="M2401 4208 c-29 -92 -81 -291 -77 -295 2 -2 47 19 100 48 88 48 97
56 107 91 5 22 12 45 15 52 3 7 -26 40 -65 75 l-69 62 -11 -33z"/>
<path d="M2257 3697 c-24 -62 -106 -286 -111 -304 -6 -19 12 -12 121 49 70 39
130 73 132 74 4 4 -71 117 -112 168 -19 24 -25 26 -30 13z"/>
<path d="M4350 3705 c0 -8 60 -178 64 -183 5 -4 116 51 116 58 0 3 -35 30 -77
60 -89 65 -103 73 -103 65z"/>
<path d="M1291 3268 c29 -58 68 -110 79 -103 5 3 836 6 1847 6 1011 0 1873 4
1917 7 l78 7 19 50 c10 28 19 51 19 52 0 1 -244 2 -543 3 -298 0 -1014 5
-1592 10 -577 5 -1229 10 -1448 10 l-397 0 21 -42z"/>
<path d="M1250 2935 c0 -9 7 -45 16 -79 15 -57 24 -214 14 -245 -3 -9 6 -17
24 -22 56 -16 304 -30 681 -39 435 -11 2827 -13 3078 -3 l167 6 0 136 c1 126
5 154 34 222 7 15 -120 17 -1591 23 -879 3 -1784 9 -2010 12 -385 6 -413 5
-413 -11z"/>
<path d="M1120 2363 c-52 -76 -320 -464 -595 -863 -276 -399 -505 -731 -509
-739 -6 -9 -2 -19 11 -30 11 -9 44 -35 73 -59 51 -41 54 -42 71 -25 9 10 124
185 255 388 356 555 555 854 606 912 26 29 65 83 87 120 52 91 171 332 171
349 0 14 -57 84 -69 84 -4 0 -50 -62 -101 -137z"/>
<path d="M1908 2332 l-157 -148 -253 -45 -253 -44 125 -6 c69 -4 195 -9 280
-12 l156 -4 114 175 c63 96 123 188 133 204 11 15 17 28 15 28 -1 0 -74 -67
-160 -148z"/>
<path d="M5280 2400 c-11 -7 69 -176 430 -904 244 -493 445 -896 447 -896 2 0
31 14 65 31 79 40 168 99 168 112 0 14 -118 200 -533 842 -203 314 -406 627
-451 697 -78 123 -94 138 -126 118z"/>
<path d="M3120 2209 c-194 -19 -429 -83 -628 -173 -554 -250 -1123 -769 -1586
-1448 -48 -71 -85 -128 -83 -128 2 0 60 64 129 143 662 755 1305 1204 1920
1341 412 91 781 47 1164 -139 463 -225 892 -657 1255 -1263 l85 -143 137 -2
c75 -1 137 1 137 6 0 21 -239 380 -370 557 -375 503 -760 850 -1170 1054 -333
165 -650 228 -990 195z"/>
<path d="M2110 2187 c-37 -19 -36 -50 6 -117 20 -33 38 -60 40 -60 2 0 24 10
48 22 l45 21 -25 50 c-25 49 -65 97 -81 97 -4 0 -19 -6 -33 -13z"/>
<path d="M2297 2182 c-20 -22 -22 -82 -4 -104 11 -14 17 -14 65 -1 28 9 52 21
52 28 0 22 -60 95 -79 95 -10 0 -25 -8 -34 -18z"/>
<path d="M2466 2168 c-18 -25 -21 -58 -6 -58 5 0 32 5 60 11 57 12 68 38 25
57 -38 18 -62 15 -79 -10z"/>
<path d="M2649 2170 l-24 -21 50 7 c58 8 65 12 45 24 -23 15 -46 12 -71 -10z"/>
<path d="M4137 2169 c-23 -13 -52 -78 -40 -89 11 -11 646 -350 649 -347 3 2
-324 266 -421 339 -64 49 -155 108 -164 108 -4 0 -14 -5 -24 -11z"/>
<path d="M3956 2155 c-24 -18 -23 -19 42 -38 57 -16 65 -10 36 31 -17 25 -50
28 -78 7z"/>
<path d="M1936 2119 c-14 -11 -26 -28 -26 -38 0 -9 22 -47 48 -83 l48 -67 45
26 c24 14 46 27 48 29 7 6 -71 124 -92 139 -28 20 -39 19 -71 -6z"/>
<path d="M1322 1920 c-40 -49 -72 -91 -72 -94 0 -3 95 37 327 140 l38 17 -85
13 c-140 20 -128 25 -208 -76z"/>
<path d="M1178 1966 l-107 -21 50 -79 50 -78 39 66 c22 37 49 80 61 97 11 17
20 31 18 33 -2 1 -52 -7 -111 -18z"/>
<path d="M1832 1958 c-16 -16 -15 -59 3 -82 14 -18 16 -18 62 9 26 15 49 29
51 31 2 1 -4 14 -13 28 -14 20 -26 26 -54 26 -20 0 -42 -5 -49 -12z"/>
<path d="M1511 1862 l-164 -77 59 -8 c32 -4 90 -6 127 -5 l68 3 44 83 c25 45
42 82 38 82 -5 -1 -82 -35 -172 -78z"/>
<path d="M4844 1810 l41 -80 127 0 c70 0 129 4 132 8 3 5 -44 17 -103 26 -108
18 -109 19 -169 72 -33 30 -62 54 -65 54 -2 0 14 -36 37 -80z"/>
<path d="M1735 1810 c-28 -31 -11 -35 32 -6 36 25 36 26 12 26 -14 0 -34 -9
-44 -20z"/>
<path d="M3120 1793 c-535 -40 -1022 -270 -1326 -624 -190 -222 -338 -510
-414 -810 -24 -94 -24 -89 -1 -89 13 0 24 14 36 48 28 74 132 277 192 377 134
220 307 410 471 519 226 150 614 307 855 346 92 15 564 8 667 -10 128 -22 353
-111 637 -252 185 -91 168 -76 404 -353 144 -169 167 -202 214 -300 64 -133
127 -325 150 -458 10 -54 19 -96 21 -95 1 2 -4 64 -12 138 -14 139 -18 318 -8
357 5 17 25 30 80 50 41 16 74 32 74 37 0 32 -206 283 -369 449 -228 233 -467
421 -645 507 -258 126 -665 190 -1026 163z"/>
<path d="M1275 1689 c5 -8 35 -53 69 -102 47 -69 62 -85 72 -75 30 32 113 158
106 161 -4 3 -52 8 -107 12 -55 3 -111 9 -124 12 -19 5 -22 3 -16 -8z"/>
<path d="M921 1565 c-68 -46 -128 -88 -134 -94 -8 -8 13 -11 75 -11 l86 0 52
91 c29 49 51 92 49 93 -2 2 -60 -34 -128 -79z"/>
<path d="M1138 1583 c-24 -32 -54 -73 -67 -90 l-22 -33 131 0 132 0 -48 68
c-26 37 -55 77 -65 90 l-17 23 -44 -58z"/>
<path d="M5012 1546 c29 -47 55 -83 58 -81 12 8 131 155 125 155 -3 0 -33 -14
-66 -30 l-60 -31 -50 36 c-27 19 -51 35 -54 35 -3 0 19 -38 47 -84z"/>
<path d="M700 1361 c0 -23 43 -181 49 -181 6 1 114 153 119 170 2 5 -11 10
-30 10 -18 0 -57 3 -85 6 -38 5 -53 3 -53 -5z"/>
<path d="M1120 1235 c-107 -47 -204 -89 -215 -94 -13 -7 30 -9 133 -8 l154 2
64 93 c36 50 64 92 62 92 -2 -1 -91 -39 -198 -85z"/>
<path d="M5217 1190 l56 -90 81 1 81 0 -67 27 c-46 19 -90 48 -138 90 l-69 63
56 -91z"/>
<path d="M525 1118 c-44 -62 -82 -116 -84 -121 -2 -7 235 107 247 118 5 4 -71
114 -78 114 -3 0 -41 -50 -85 -111z"/>
<path d="M921 955 c40 -53 76 -94 80 -93 4 2 35 41 69 88 l60 85 -67 6 c-38 4
-101 7 -141 8 l-72 1 71 -95z"/>
<path d="M623 962 c-73 -31 -133 -59 -133 -62 0 -3 87 -20 193 -38 105 -19
200 -36 211 -39 12 -3 -9 31 -58 96 -42 56 -78 101 -79 101 -1 -1 -62 -26
-134 -58z"/>
</g>
</svg>
