<?xml version="1.0" standalone="no"?>
<!DOCTYPE svg PUBLIC "-//W3C//DTD SVG 20010904//EN"
 "http://www.w3.org/TR/2001/REC-SVG-20010904/DTD/svg10.dtd">
<svg version="1.0" xmlns="http://www.w3.org/2000/svg"
 width="1280.000000pt" height="942.000000pt" viewBox="0 0 1280.000000 942.000000"
 preserveAspectRatio="xMidYMid meet">
<metadata>
Created by potrace 1.15, written by Peter Selinger 2001-2017
</metadata>
<g transform="translate(0.000000,942.000000) scale(0.100000,-0.100000)"
fill="#000000" stroke="none">
<path d="M6591 8512 c-18 -96 -22 -142 -18 -205 3 -45 2 -100 -2 -122 l-9 -40
-1 54 c-1 53 -40 231 -50 231 -4 0 -4 -30 -3 -66 2 -37 1 -88 -3 -113 l-8 -46
-43 90 c-24 51 -53 132 -65 185 -33 146 -38 147 -38 14 -1 -86 5 -151 20 -223
11 -55 19 -111 17 -124 -3 -14 -9 1 -17 38 -12 56 -80 220 -88 212 -2 -2 3
-36 12 -76 8 -40 15 -91 15 -114 l0 -41 -63 91 c-36 52 -80 133 -102 187 -21
53 -40 94 -42 93 -1 -2 4 -49 13 -106 10 -67 31 -144 60 -221 52 -140 56 -175
9 -73 -27 58 -109 183 -120 183 -2 0 10 -32 26 -71 16 -39 32 -89 35 -110 l7
-39 -73 73 c-40 39 -100 113 -132 162 -33 50 -62 92 -64 94 -2 2 3 -18 12 -45
38 -118 68 -186 111 -255 73 -119 99 -194 29 -86 -18 28 -62 79 -96 112 l-62
60 35 -55 c40 -64 62 -106 72 -138 11 -38 -132 68 -231 170 -46 48 -84 85 -84
81 0 -22 113 -204 161 -257 74 -84 113 -135 107 -142 -3 -2 -22 16 -43 41 -20
25 -71 69 -113 97 -49 32 -69 42 -57 27 12 -13 37 -43 57 -66 20 -23 44 -55
52 -72 l16 -30 -77 36 c-97 46 -141 73 -220 135 -35 26 -63 45 -63 41 1 -21
145 -179 215 -236 114 -91 159 -147 53 -65 -38 30 -170 98 -189 98 -5 0 18
-21 52 -47 34 -27 72 -62 85 -79 l24 -31 -100 27 c-55 15 -147 50 -203 79
l-102 51 40 -36 c104 -93 147 -125 235 -174 102 -56 123 -70 116 -77 -2 -3
-24 7 -48 21 -36 21 -228 81 -228 72 0 -2 30 -19 66 -37 36 -19 80 -46 97 -61
l32 -27 -25 -1 c-69 0 -211 24 -293 50 -50 16 -92 28 -94 27 -9 -10 205 -123
286 -151 92 -32 166 -65 150 -66 -4 0 -35 9 -70 19 -35 11 -100 22 -144 25
l-80 6 55 -20 c72 -26 150 -62 150 -69 0 -18 -278 -19 -365 -2 -27 5 -51 8
-53 6 -2 -2 44 -21 101 -44 71 -28 140 -46 212 -57 124 -18 185 -38 90 -29
-71 7 -233 -5 -214 -15 8 -4 37 -10 66 -13 58 -7 133 -27 133 -36 0 -16 -193
-56 -295 -61 -60 -3 -103 -9 -95 -12 51 -22 188 -39 313 -38 148 0 186 -14 60
-23 -43 -3 -105 -14 -138 -25 l-60 -20 97 -1 c53 -1 104 -4 113 -7 28 -11
-162 -92 -276 -118 l-104 -23 78 -8 c83 -8 164 -2 262 20 79 17 150 25 139 16
-5 -4 -36 -14 -69 -21 -33 -7 -94 -30 -135 -51 -68 -36 -70 -40 -9 -23 37 11
169 20 169 12 0 -4 -4 -8 -8 -8 -5 0 -33 -18 -63 -41 -61 -46 -144 -90 -234
-125 -41 -16 -52 -23 -35 -23 63 -2 205 31 304 68 60 23 116 41 125 39 9 -2
-10 -13 -42 -25 -53 -21 -193 -111 -184 -119 1 -2 30 8 62 21 51 20 145 47
145 41 0 -1 -25 -28 -55 -59 -68 -70 -138 -126 -210 -167 -31 -18 -54 -34 -52
-36 9 -9 214 68 261 98 70 44 176 101 176 94 0 -4 -24 -22 -52 -40 -29 -19
-80 -62 -113 -97 -50 -52 -54 -59 -25 -40 51 32 148 81 160 81 23 0 -92 -150
-179 -234 l-92 -88 100 53 c61 31 128 76 169 113 76 69 131 110 137 104 3 -2
-16 -21 -40 -42 -25 -20 -68 -72 -97 -114 l-52 -77 60 51 c61 52 118 94 127
94 17 0 -86 -192 -144 -269 -37 -50 -65 -91 -63 -91 18 0 178 143 223 198 64
81 113 133 119 127 2 -2 -12 -24 -32 -48 -20 -24 -52 -78 -71 -120 -38 -83
-44 -105 -18 -67 31 46 106 131 124 141 16 8 15 0 -7 -84 -13 -50 -46 -137
-73 -192 -27 -55 -48 -101 -47 -102 8 -9 151 175 191 247 66 119 108 172 64
80 -28 -57 -69 -186 -69 -215 1 -5 16 20 36 56 19 36 48 81 63 99 l28 34 -4
-59 c-6 -95 -22 -181 -49 -267 -14 -44 -24 -81 -22 -83 11 -11 118 194 149
285 54 159 76 190 40 56 -19 -71 -35 -215 -22 -199 4 4 15 35 25 68 10 33 28
78 39 100 l21 40 9 -60 c8 -57 3 -276 -8 -340 -3 -16 14 20 39 80 32 79 48
140 59 215 22 150 36 179 30 59 -3 -52 -2 -122 2 -155 l8 -59 13 82 c8 45 20
97 27 115 l13 32 28 -104 c15 -59 30 -151 34 -210 l7 -105 23 110 c16 78 22
149 23 245 2 130 2 132 10 58 7 -66 44 -218 53 -218 1 0 1 35 -1 78 -3 42 -1
94 4 116 l8 39 43 -89 c23 -49 51 -127 62 -174 37 -153 38 -154 39 -20 0 89
-5 153 -19 220 -20 96 -25 149 -14 137 4 -3 10 -26 15 -51 8 -45 79 -219 86
-212 2 1 -3 35 -12 75 -8 40 -15 91 -15 113 l0 41 62 -88 c34 -49 81 -134 105
-189 l43 -101 -6 55 c-11 100 -31 184 -67 275 -45 118 -55 169 -16 86 25 -54
113 -191 123 -191 2 0 -12 39 -30 88 -18 48 -33 97 -34 108 0 34 141 -115 207
-218 31 -48 58 -86 60 -84 2 2 -12 48 -32 104 -32 94 -69 167 -116 234 -21 29
-52 98 -44 98 2 0 20 -24 39 -52 18 -29 62 -80 96 -113 66 -63 66 -62 14 21
-27 42 -64 117 -64 130 0 1 35 -21 78 -51 42 -29 114 -91 160 -138 45 -46 82
-82 82 -79 0 24 -114 203 -167 263 -77 88 -108 129 -95 129 5 0 23 -18 40 -39
26 -32 106 -96 172 -136 8 -5 -5 15 -30 44 -53 62 -90 113 -90 123 0 22 174
-68 267 -138 47 -35 87 -64 89 -64 17 0 -151 187 -204 228 -37 28 -83 67 -102
88 -39 41 -28 37 39 -14 42 -31 170 -96 178 -89 1 2 -26 27 -62 55 -52 42 -97
92 -83 92 34 0 213 -62 290 -100 l103 -51 -50 46 c-76 70 -163 134 -230 167
-66 33 -118 68 -112 74 2 2 28 -9 58 -25 30 -16 83 -37 119 -46 36 -9 74 -18
85 -21 11 -3 -16 15 -60 41 -44 25 -89 55 -100 66 l-20 20 75 -6 c90 -7 202
-30 278 -56 30 -10 57 -18 58 -16 10 10 -203 123 -277 147 -75 25 -175 68
-159 69 3 1 33 -8 68 -19 34 -11 99 -22 145 -25 l82 -6 -85 32 c-47 17 -93 37
-103 44 -17 12 -14 14 29 22 69 11 238 8 308 -6 33 -6 61 -9 63 -8 2 2 -43 22
-100 44 -69 27 -140 47 -213 58 -143 23 -172 36 -64 29 47 -3 112 -1 145 3
l60 9 -70 13 c-93 16 -147 33 -138 41 22 19 189 53 293 59 l115 7 -75 18 c-51
13 -130 21 -245 25 -171 7 -200 16 -70 24 39 2 97 12 130 23 l60 19 -100 3
c-55 1 -107 5 -115 8 -26 9 161 87 275 114 l110 27 -95 6 c-53 4 -119 3 -150
-3 -30 -5 -91 -16 -135 -24 -44 -9 -87 -15 -95 -15 -28 0 11 16 65 27 46 10
205 76 205 85 0 3 -24 -1 -54 -8 -30 -7 -83 -16 -118 -19 l-63 -7 25 21 c64
53 167 114 252 150 51 22 84 40 73 40 -62 0 -217 -35 -305 -70 -114 -46 -166
-53 -74 -10 59 27 210 130 169 115 -11 -4 -47 -17 -80 -30 -33 -12 -76 -25
-95 -29 -35 -6 -35 -6 40 69 41 42 114 101 162 132 48 31 86 58 85 60 -6 5
-170 -53 -215 -76 -24 -12 -68 -38 -99 -57 -55 -36 -123 -68 -123 -59 0 2 26
21 58 41 63 40 113 84 144 127 20 28 20 28 -36 -8 -55 -35 -146 -79 -146 -70
0 20 135 188 202 250 l83 78 -90 -48 c-99 -53 -136 -78 -210 -145 -27 -25 -66
-56 -85 -69 -27 -19 -21 -10 26 40 52 56 99 116 129 169 5 8 -16 -7 -46 -34
-58 -52 -127 -101 -133 -95 -10 10 97 204 154 279 70 92 67 93 -35 9 -72 -58
-106 -93 -185 -192 -57 -70 -84 -84 -35 -17 33 46 105 181 105 198 0 4 -12 -9
-27 -28 -40 -51 -115 -130 -123 -130 -16 0 49 201 93 287 26 51 47 95 47 98 0
9 -121 -127 -150 -169 -15 -23 -40 -66 -55 -96 -32 -65 -65 -113 -72 -106 -3
2 7 24 20 48 24 40 67 174 67 207 0 8 -12 -8 -26 -35 -30 -57 -87 -144 -94
-144 -3 0 -2 44 3 98 7 92 30 189 63 275 23 60 1 36 -59 -65 -31 -52 -69 -135
-86 -188 -31 -92 -60 -157 -61 -134 0 6 7 31 16 55 15 42 38 218 30 226 -2 2
-12 -22 -22 -54 -9 -32 -29 -80 -43 -108 l-25 -50 -7 55 c-10 83 -10 207 1
284 6 38 9 71 7 73 -13 12 -82 -207 -98 -311 -11 -65 -24 -126 -30 -135 -7
-11 -8 -3 -3 29 10 61 7 212 -5 241 -9 22 -10 21 -11 -11 -1 -45 -27 -171 -38
-182 -15 -15 -54 152 -66 282 l-11 125 -24 -123z"/>
<path d="M4207 5980 c-35 -37 -37 -43 -37 -105 0 -36 -4 -65 -8 -65 -4 0 -32
25 -62 56 -62 62 -144 116 -207 134 -39 12 -43 11 -69 -14 -28 -25 -28 -26 -6
-26 13 0 22 -6 22 -15 0 -9 11 -20 25 -25 14 -5 25 -17 25 -25 0 -12 6 -15 20
-10 15 5 18 3 14 -9 -4 -11 -20 -16 -53 -16 -53 0 -167 -31 -138 -38 32 -7 12
-26 -52 -50 -53 -21 -60 -26 -49 -39 9 -11 24 -13 60 -9 37 5 47 4 43 -7 -7
-16 28 -16 65 0 14 6 28 9 33 6 17 -10 4 -20 -40 -31 -26 -7 -70 -24 -98 -38
-60 -30 -165 -130 -165 -158 0 -18 1 -18 24 3 23 22 25 22 35 4 10 -17 10 -16
11 5 0 20 3 21 20 12 17 -9 20 -8 20 12 0 17 3 19 9 9 7 -11 9 -11 14 0 4 12
6 12 6 0 1 -9 8 -6 21 9 11 13 20 17 20 10 0 -9 7 -7 21 6 16 14 23 16 26 6 3
-8 11 -5 24 10 13 17 19 19 19 8 0 -9 6 -5 15 10 11 20 14 21 15 7 0 -16 2
-16 23 3 l22 21 6 -23 c6 -23 6 -23 13 4 5 17 13 25 22 21 8 -3 14 0 14 6 0 6
5 11 10 11 26 0 4 -39 -61 -109 -40 -42 -87 -99 -105 -126 -54 -81 -94 -215
-64 -215 6 0 10 12 10 26 0 14 4 23 10 19 6 -3 10 -1 10 5 0 7 7 9 16 6 12 -5
15 -2 10 10 -4 12 -2 15 9 10 8 -3 14 0 12 6 -1 7 5 12 13 13 8 0 14 8 12 17
-1 10 4 15 15 14 12 -1 17 5 15 17 -2 10 3 17 14 17 12 0 15 -5 9 -22 -9 -31
-13 -148 -4 -143 4 3 9 -5 13 -18 5 -18 8 -20 16 -7 9 13 10 13 10 0 0 -13 1
-13 10 0 8 13 11 11 16 -7 8 -28 8 -28 39 -1 14 12 28 36 31 55 3 18 11 33 16
33 5 0 8 19 6 43 -3 37 0 42 19 45 16 2 23 11 26 35 2 18 5 -20 5 -84 2 -84 6
-120 17 -135 14 -18 14 -18 15 6 0 20 2 22 11 10 8 -11 9 -8 4 15 -5 24 -4 28
6 18 20 -20 32 -15 25 11 -5 21 -3 23 16 18 18 -4 20 -2 16 16 -4 12 -2 22 3
22 5 0 9 -13 9 -30 0 -16 4 -30 10 -30 5 0 7 -7 4 -15 -4 -8 -2 -15 4 -15 6 0
13 -13 17 -30 4 -16 10 -30 15 -30 5 0 12 -9 15 -20 4 -11 11 -18 16 -15 5 4
12 -1 15 -10 5 -13 10 -12 31 9 14 14 22 29 19 34 -3 5 1 24 10 41 12 24 14
46 9 89 l-7 57 54 -51 c29 -28 94 -84 143 -125 253 -206 535 -468 535 -495 0
-5 -48 -29 -107 -54 -291 -123 -631 -338 -872 -550 l-90 -80 -34 30 c-36 31
-86 118 -107 185 -13 39 -13 39 -23 15 -81 -201 -140 -265 -279 -306 -34 -11
-48 -20 -48 -33 0 -28 9 -30 58 -15 67 20 510 20 537 0 16 -12 26 -12 65 0 65
20 494 20 541 0 28 -12 40 -12 78 0 65 20 495 20 542 0 28 -12 40 -12 81 0 37
12 100 14 290 10 253 -4 278 -6 278 -17 0 -4 24 -1 53 7 79 21 523 20 534 -1
8 -14 14 -14 58 0 73 22 511 22 535 0 15 -13 22 -13 66 0 69 21 499 22 539 1
22 -12 34 -12 78 0 65 17 522 20 532 3 4 -6 13 -8 20 -5 8 3 15 1 17 -5 2 -6
23 -3 53 6 62 18 519 22 531 4 3 -6 15 -9 25 -6 11 3 19 1 19 -3 0 -5 22 -2
50 6 39 12 100 14 287 12 131 -2 246 -7 255 -11 12 -6 19 -3 27 11 9 16 -1 26
-80 76 -107 69 -139 107 -181 208 l-32 77 -31 -72 c-33 -76 -77 -151 -95 -162
-6 -4 -43 24 -83 61 -213 197 -591 434 -909 569 -49 21 -88 42 -88 47 0 26
320 319 555 508 44 36 102 85 128 109 46 43 48 44 43 18 -3 -15 -8 -39 -11
-53 -6 -26 13 -84 27 -84 4 0 5 -7 2 -15 -3 -8 3 -26 15 -41 17 -21 22 -23 27
-11 3 9 12 13 20 10 9 -3 14 1 14 11 0 9 7 19 15 22 8 4 15 17 15 30 0 14 7
27 15 30 11 5 13 10 5 19 -7 8 -3 15 13 22 42 21 60 24 54 11 -22 -55 -23 -52
7 -33 l27 18 -11 -28 c-9 -25 -9 -26 5 -15 13 10 15 9 15 -9 0 -20 2 -21 15
-7 11 11 15 38 15 105 0 90 0 90 23 82 18 -7 22 -16 21 -49 0 -23 3 -39 8 -36
4 3 8 -6 8 -20 0 -14 5 -26 11 -26 5 0 8 -4 5 -8 -3 -5 6 -21 19 -36 25 -29
45 -28 45 2 0 10 3 13 8 7 11 -15 42 -15 42 0 0 7 4 15 10 17 14 4 15 110 1
135 -14 28 -14 34 2 30 6 -1 15 -10 19 -19 4 -10 14 -15 21 -12 11 4 13 -2 11
-23 -2 -15 -1 -22 2 -16 8 17 44 -2 44 -23 0 -8 5 -12 10 -9 6 3 10 1 10 -5 0
-6 5 -8 10 -5 6 4 10 -5 10 -19 0 -28 14 -35 24 -11 9 25 -32 140 -73 201 -22
33 -71 91 -110 130 -39 40 -71 77 -71 82 0 16 18 24 25 12 4 -6 10 -8 15 -5 5
3 11 -4 15 -15 8 -25 25 -26 26 -2 0 10 3 12 6 4 2 -6 9 -10 14 -6 5 3 9 -2 9
-10 0 -9 4 -16 10 -16 5 0 7 8 4 18 -4 11 1 8 15 -8 14 -18 21 -21 21 -10 1 9
5 7 12 -7 13 -27 28 -30 28 -5 1 14 4 13 20 -7 17 -19 20 -20 20 -6 0 15 3 15
20 -5 11 -13 20 -20 20 -15 0 4 6 2 14 -4 11 -9 15 -9 19 1 3 7 6 3 6 -9 1
-16 6 -20 21 -16 15 4 20 0 21 -13 1 -14 3 -13 9 6 4 14 8 18 9 10 1 -8 10
-21 21 -28 34 -21 25 19 -15 65 -46 55 -121 101 -204 127 -53 17 -68 25 -61
36 7 11 15 9 44 -8 20 -12 36 -17 36 -12 0 5 7 7 15 4 11 -4 13 -2 9 9 -4 13
2 14 39 11 31 -4 47 -1 56 10 11 13 7 17 -24 31 -21 8 -40 15 -44 15 -4 0 -17
8 -30 17 -23 16 -23 17 -5 23 26 10 -74 40 -132 40 -27 0 -44 5 -47 14 -4 10
-1 13 9 9 10 -4 17 2 21 16 3 12 13 21 23 21 10 0 22 9 25 20 3 11 13 20 21
20 22 0 17 16 -12 34 -23 16 -29 16 -80 1 -35 -10 -54 -21 -54 -31 0 -8 -4
-12 -10 -9 -13 8 -35 -8 -117 -86 l-68 -64 -3 67 c-3 61 -6 70 -40 107 -26 29
-46 41 -65 41 -16 0 -27 -5 -27 -14 0 -8 -15 -17 -35 -20 -36 -7 -58 -26 -29
-26 12 0 14 -3 6 -13 -9 -10 -4 -21 18 -45 16 -18 35 -32 44 -32 9 0 12 -7 9
-19 -3 -13 2 -21 16 -26 26 -8 27 -21 1 -35 -16 -8 -18 -8 -14 4 4 9 -6 18
-30 26 -20 6 -34 16 -31 20 9 14 -122 51 -201 57 -86 7 -181 -18 -259 -68
l-50 -32 33 -9 c27 -7 40 -5 70 14 20 13 42 22 48 20 6 -1 17 5 24 13 18 22
33 18 20 -5 -13 -25 -7 -25 27 -3 18 12 28 14 30 6 2 -6 12 -9 22 -6 10 3 22
0 25 -6 4 -6 17 -11 28 -11 17 0 12 -8 -27 -42 -26 -23 -56 -60 -66 -82 -17
-40 -17 -65 1 -36 5 8 12 12 15 9 3 -4 -21 -33 -53 -67 -42 -42 -61 -70 -64
-93 -3 -19 -2 -35 3 -37 5 -2 9 -15 9 -29 0 -22 3 -24 26 -19 22 6 25 4 19
-14 -3 -11 -3 -20 2 -21 4 0 25 -2 46 -5 20 -2 37 0 37 5 0 5 9 7 20 4 11 -3
17 -10 13 -16 -8 -12 -6 -134 3 -148 3 -6 13 -1 24 11 11 12 24 19 29 15 6 -3
-53 -56 -132 -117 -226 -176 -305 -244 -418 -360 l-107 -110 -120 41 c-451
152 -927 220 -1457 208 -457 -11 -825 -71 -1219 -201 l-159 -52 -131 132 c-74
74 -207 192 -306 269 -207 163 -206 162 -196 172 4 4 11 1 16 -7 10 -15 16 44
13 122 -1 23 3 38 13 42 8 3 14 1 14 -4 0 -5 19 -8 43 -7 34 3 42 7 42 22 0
14 7 20 25 20 19 0 25 5 24 23 0 12 5 22 12 22 10 0 11 6 4 25 -5 14 -7 25 -4
25 10 0 -35 56 -80 100 -25 24 -42 48 -39 52 2 5 11 1 19 -9 14 -17 15 -16 8
7 -11 44 -39 84 -81 116 l-42 32 32 8 c18 4 39 7 47 6 8 0 18 4 21 10 4 6 16
4 34 -8 l28 -18 -8 24 c-7 22 -6 23 8 12 8 -7 25 -15 36 -17 12 -2 35 -13 51
-25 23 -16 38 -19 65 -14 l36 6 -46 34 c-72 51 -136 69 -240 69 -99 -1 -205
-27 -205 -50 0 -8 -18 -19 -41 -25 -30 -8 -39 -15 -35 -26 3 -9 6 -22 6 -30 0
-9 5 -12 10 -9 6 3 10 2 10 -4 0 -5 -9 -9 -20 -8 -14 1 -18 6 -15 18 4 11 -2
23 -15 32 -21 14 -21 14 4 31 14 9 23 22 20 29 -2 7 8 17 26 24 16 6 30 18 30
27 0 9 5 16 11 16 6 0 8 9 4 20 -4 13 -2 20 7 20 20 1 -23 30 -44 30 -10 0
-18 7 -18 15 0 10 -10 15 -28 15 -21 0 -39 -11 -65 -40z m4743 -230 c0 -5 -4
-10 -10 -10 -5 0 -10 5 -10 10 0 6 5 10 10 10 6 0 10 -4 10 -10z m-4957 -17
c-7 -2 -19 -2 -25 0 -7 3 -2 5 12 5 14 0 19 -2 13 -5z m325 -67 c26 -14 56
-32 67 -41 11 -9 -11 0 -50 21 -75 40 -82 44 -71 44 4 0 28 -11 54 -24z m237
14 c3 -5 1 -10 -4 -10 -6 0 -11 5 -11 10 0 6 2 10 4 10 3 0 8 -4 11 -10z
m4405 -5 c0 -2 -22 -16 -50 -30 -27 -14 -50 -23 -50 -20 0 2 21 16 48 29 53
28 52 28 52 21z m-23 -137 c-3 -8 -6 -5 -6 6 -1 11 2 17 5 13 3 -3 4 -12 1
-19z m-4578 -28 c3 30 18 -13 25 -70 8 -59 39 -140 54 -140 5 0 12 -10 15 -21
9 -33 -54 31 -114 115 -45 64 -70 115 -33 70 15 -18 15 -18 10 11 -3 19 2 36
12 48 16 18 17 18 23 -5 4 -12 8 -16 8 -8z m203 13 c26 -28 46 -43 58 -43 5 0
10 -9 10 -20 0 -11 -1 -20 -3 -20 -1 0 -25 23 -52 50 -27 28 -45 50 -39 50 5
0 17 -8 26 -17z m4108 -30 c-25 -26 -46 -50 -47 -52 -2 -2 -3 6 -3 19 0 13 3
21 6 18 3 -3 22 9 42 28 53 48 54 42 2 -13z m257 -19 c-5 -27 7 -33 17 -8 4 9
9 14 12 11 7 -7 -72 -119 -126 -178 -37 -40 -40 -42 -38 -19 2 14 9 25 17 25
16 0 49 85 50 130 2 49 12 77 27 71 9 -4 14 2 14 17 l0 21 16 -22 c9 -13 14
-34 11 -48z m-4860 14 c-3 -8 -6 -5 -6 6 -1 11 2 17 5 13 3 -3 4 -12 1 -19z
m-185 -110 c-9 -9 -12 -7 -12 12 0 19 3 21 12 12 9 -9 9 -15 0 -24z m5305 0
c-3 -8 -6 -5 -6 6 -1 11 2 17 5 13 3 -3 4 -12 1 -19z m193 1 c0 -6 -4 -7 -10
-4 -5 3 -10 11 -10 16 0 6 5 7 10 4 6 -3 10 -11 10 -16z m-5206 -64 c3 -8 1
-15 -4 -15 -6 0 -10 7 -10 15 0 8 2 15 4 15 2 0 6 -7 10 -15z m4909 -5 c-3
-12 -8 -19 -11 -16 -5 6 5 36 12 36 2 0 2 -9 -1 -20z m-16 -62 c-3 -8 -6 -5
-6 6 -1 11 2 17 5 13 3 -3 4 -12 1 -19z m-4567 -14 c0 -8 -4 -12 -10 -9 -5 3
-10 10 -10 16 0 5 5 9 10 9 6 0 10 -7 10 -16z"/>
<path d="M2185 5814 c-63 -32 -115 -99 -115 -146 0 -22 -3 -23 -92 -25 -176
-4 -284 -47 -393 -157 -81 -81 -121 -150 -136 -232 -7 -37 -21 -70 -40 -94
-16 -20 -31 -50 -32 -66 -2 -27 1 -29 36 -32 31 -3 52 5 106 37 76 46 93 48
175 21 102 -34 160 -22 117 24 -12 12 -21 25 -21 28 0 3 19 8 41 12 35 6 48 2
88 -23 25 -16 64 -37 86 -45 50 -21 155 -33 155 -18 0 6 -9 14 -20 17 -11 4
-41 24 -66 46 l-45 39 40 0 c124 0 382 -93 471 -169 143 -124 271 -197 383
-222 40 -9 62 -19 69 -33 37 -71 172 -196 191 -177 5 5 3 40 -7 87 -16 74 -16
78 3 98 10 12 21 30 23 41 2 12 22 29 52 44 l50 25 -29 8 c-18 4 -57 2 -100
-7 -38 -8 -92 -15 -119 -15 -47 0 -53 3 -101 53 -83 86 -131 151 -202 280
-105 187 -175 251 -407 367 -129 64 -130 65 -134 102 -2 29 4 47 27 82 17 25
31 49 31 55 0 16 -51 13 -85 -5z"/>
<path d="M10886 5821 c-3 -4 8 -29 25 -54 23 -35 30 -55 27 -84 l-3 -38 -138
-70 c-233 -118 -290 -170 -402 -369 -68 -120 -158 -240 -220 -295 -42 -36 -86
-40 -200 -16 -43 9 -82 11 -100 7 l-29 -8 50 -25 c30 -15 50 -32 52 -44 2 -11
13 -30 24 -42 19 -21 19 -23 3 -98 -10 -46 -14 -80 -8 -86 14 -14 75 34 137
106 30 36 59 71 63 79 4 7 33 19 63 26 111 25 237 98 380 220 90 77 348 170
471 170 l40 0 -45 -39 c-25 -22 -55 -42 -66 -46 -11 -3 -20 -11 -20 -17 0 -7
20 -9 62 -4 62 6 145 38 198 76 23 16 37 19 69 14 23 -4 41 -9 41 -12 0 -3 -9
-16 -21 -28 -12 -12 -18 -27 -14 -33 10 -17 74 -12 135 9 78 27 95 25 171 -21
54 -32 75 -40 106 -37 35 3 38 5 36 32 -1 16 -15 45 -31 65 -18 22 -33 58 -40
94 -34 171 -202 334 -387 376 -27 6 -90 13 -139 15 -83 4 -90 6 -93 26 -11 72
-106 160 -173 160 -10 0 -21 -4 -24 -9z"/>
<path d="M4025 4876 c-32 -14 -45 -35 -76 -125 -19 -54 -40 -226 -38 -311 l1
-45 9 39 c20 85 76 140 190 185 85 34 120 67 126 121 7 63 -15 112 -60 133
-42 20 -110 21 -152 3z"/>
<path d="M9074 4876 c-46 -21 -64 -52 -64 -112 0 -68 27 -101 112 -138 35 -15
73 -32 85 -38 42 -20 96 -86 114 -140 l18 -53 -5 105 c-9 182 -42 316 -90 361
-30 28 -123 37 -170 15z"/>
<path d="M3600 4577 c-78 -27 -88 -144 -17 -187 18 -11 56 -27 85 -35 66 -20
128 -74 144 -126 19 -64 20 -38 4 80 -16 115 -54 227 -86 256 -24 22 -86 28
-130 12z"/>
<path d="M9544 4580 c-51 -21 -95 -129 -113 -279 -12 -92 -10 -127 3 -75 16
63 69 105 173 139 69 22 103 62 103 118 -1 51 -15 72 -63 92 -40 17 -71 18
-103 5z"/>
<path d="M3910 3595 l0 -55 2715 0 2715 0 0 55 0 55 -2715 0 -2715 0 0 -55z"/>
<path d="M4161 3349 c-165 -29 -258 -132 -249 -278 6 -119 63 -184 200 -230
95 -32 128 -55 128 -90 0 -38 -22 -54 -73 -55 -41 -1 -42 -1 -45 37 l-3 37
-95 0 -94 0 0 -129 0 -128 33 -7 c17 -4 70 -9 117 -13 229 -16 385 86 407 265
13 112 -37 185 -167 244 -155 70 -155 70 -158 105 -3 34 8 44 60 57 26 6 28 4
34 -34 l7 -40 93 0 94 0 0 124 0 124 -42 6 c-89 12 -195 14 -247 5z"/>
<path d="M8717 3343 l-148 -4 3 -72 3 -72 53 -9 52 -10 0 -252 0 -252 -52 -9
-53 -8 -3 -73 -3 -72 201 0 200 0 0 74 0 74 -30 7 c-30 7 -30 7 -30 76 0 49 4
69 13 69 7 0 46 -67 87 -150 l74 -150 129 0 128 0 -3 72 c-3 71 -3 72 -34 81
-25 7 -39 25 -82 104 l-53 95 44 41 c25 23 52 57 62 76 43 84 24 221 -40 285
-73 73 -169 88 -518 79z m315 -211 c49 -49 15 -144 -55 -155 -64 -9 -67 -4
-67 95 l0 91 51 -5 c33 -4 58 -12 71 -26z"/>
<path d="M4560 3265 l0 -74 34 -7 34 -6 4 -241 c4 -270 8 -290 75 -359 50 -52
118 -78 218 -85 191 -13 318 46 379 177 19 41 21 67 24 277 l4 231 34 6 34 7
0 74 0 75 -185 0 -185 0 0 -75 0 -74 35 -7 35 -6 0 -210 c0 -237 -5 -258 -66
-278 -50 -17 -116 -5 -145 26 -24 25 -24 29 -27 245 -3 212 -2 219 17 219 46
0 51 9 51 86 l0 74 -185 0 -185 0 0 -75z"/>
<path d="M5490 3266 l0 -74 53 -8 54 -9 -48 -248 c-26 -136 -51 -252 -54 -257
-3 -6 -15 -10 -26 -10 -17 0 -19 -7 -19 -75 l0 -75 175 0 176 0 -3 73 -3 72
-32 3 c-40 4 -39 -4 -9 177 24 141 29 149 41 63 3 -25 28 -122 54 -215 l48
-168 110 -3 110 -3 46 173 c26 95 52 199 58 231 7 31 13 56 14 55 4 -4 55
-282 55 -297 0 -6 -16 -11 -35 -11 l-35 0 0 -75 0 -75 185 0 185 0 0 74 c0 74
0 75 -27 78 l-28 3 -41 220 c-22 121 -44 236 -48 256 l-6 37 55 7 55 6 0 75 0
74 -197 -2 -196 -3 -43 -135 c-24 -74 -53 -173 -65 -220 -11 -47 -23 -92 -26
-100 -3 -8 -11 14 -19 50 -8 36 -37 143 -66 238 l-52 172 -198 0 -198 0 0 -74z"/>
<path d="M6700 3266 l0 -74 53 -8 53 -9 -50 -255 c-48 -239 -52 -255 -73 -258
-22 -3 -23 -8 -23 -78 l0 -74 175 0 176 0 -3 73 -3 72 -32 3 c-40 4 -39 -4 -9
177 15 90 25 131 29 115 3 -14 13 -59 22 -100 8 -41 33 -133 54 -205 l38 -130
110 -3 110 -3 22 83 c13 46 40 150 60 231 l37 148 27 -148 c15 -82 27 -152 27
-156 0 -4 -16 -7 -35 -7 l-35 0 0 -75 0 -75 185 0 186 0 -3 72 c-3 68 -5 73
-28 78 -24 6 -27 15 -72 250 -26 135 -47 250 -48 256 0 6 24 15 53 20 l52 9 3
73 3 72 -197 -2 -197 -3 -22 -65 c-23 -69 -87 -285 -107 -360 l-11 -45 -9 45
c-5 25 -28 108 -50 185 -23 77 -48 164 -56 193 l-15 52 -199 0 -198 0 0 -74z"/>
<path d="M7870 3265 l0 -74 50 -7 50 -7 0 -253 0 -253 -50 -7 -50 -7 0 -73 0
-74 305 0 305 0 0 125 0 126 -87 -3 -87 -3 -8 -32 c-8 -31 -11 -33 -53 -33
l-45 0 0 80 0 80 39 0 c30 0 40 -4 44 -20 5 -18 14 -20 81 -20 l76 0 0 125 0
126 -77 -3 c-73 -3 -78 -5 -81 -26 -3 -20 -8 -23 -40 -20 l-37 3 -3 73 -3 72
46 0 c43 0 46 -2 52 -30 l6 -30 88 0 89 0 0 120 0 120 -305 0 -305 0 0 -75z"/>
<path d="M3910 2175 l0 -55 2715 0 2715 0 0 55 0 55 -2715 0 -2715 0 0 -55z"/>
<path d="M5733 1840 c-89 -18 -147 -70 -182 -165 -60 -159 9 -350 139 -385
107 -29 233 10 285 88 78 118 73 299 -11 392 -57 62 -140 88 -231 70z m137
-62 c35 -18 51 -35 73 -78 26 -50 28 -63 25 -146 -3 -80 -6 -96 -33 -139 -38
-60 -90 -90 -160 -89 -117 2 -185 87 -185 233 0 87 13 130 53 174 62 71 144
87 227 45z"/>
<path d="M4870 1826 c0 -9 15 -17 40 -21 l40 -7 0 -234 c0 -179 -3 -236 -12
-238 -7 -3 -26 -7 -41 -11 -16 -3 -27 -11 -24 -18 2 -8 36 -13 100 -15 79 -2
97 0 97 12 0 15 -21 26 -51 26 -18 0 -19 8 -19 115 l0 115 160 0 161 0 -3
-112 -3 -113 -30 -5 c-18 -3 -31 -12 -33 -23 -3 -15 7 -17 93 -17 86 0 96 2
93 18 -2 11 -14 18 -36 20 l-32 3 0 239 0 238 35 6 c21 4 35 13 35 21 0 12
-19 15 -95 15 -76 0 -95 -3 -95 -15 0 -8 14 -17 35 -21 l36 -6 -3 -102 -3
-101 -157 -3 -158 -3 0 105 0 105 35 7 c20 3 35 12 35 20 0 11 -21 14 -100 14
-79 0 -100 -3 -100 -14z"/>
<path d="M6120 1825 c0 -8 14 -17 35 -21 l35 -6 0 -239 c0 -229 -1 -239 -19
-239 -30 0 -51 -11 -51 -26 0 -11 31 -14 170 -14 l170 0 0 66 c0 57 -2 65 -17
62 -12 -2 -20 -15 -23 -38 l-5 -35 -87 -3 -87 -3 0 235 0 234 39 7 c25 4 40
12 40 21 0 11 -21 14 -100 14 -81 0 -100 -3 -100 -15z"/>
<path d="M6520 1825 c0 -8 14 -17 35 -21 l35 -6 0 -238 0 -239 -32 -3 c-22 -2
-34 -9 -36 -20 -3 -16 7 -18 93 -18 86 0 96 2 93 18 -2 11 -14 18 -36 20 l-32
3 0 239 0 238 35 6 c21 4 35 13 35 21 0 12 -19 15 -95 15 -76 0 -95 -3 -95
-15z"/>
<path d="M6800 1827 c0 -9 14 -17 35 -21 l34 -7 3 -236 c2 -151 -1 -237 -7
-238 -5 -2 -23 -6 -38 -10 -16 -3 -27 -11 -24 -18 5 -17 205 -21 282 -7 77 15
124 40 165 86 49 57 64 99 64 189 1 93 -14 143 -57 191 -60 69 -91 78 -284 82
-148 3 -173 2 -173 -11z m365 -62 c64 -37 95 -102 95 -201 0 -102 -35 -167
-109 -206 -46 -24 -65 -28 -137 -28 l-84 0 0 236 0 237 94 -5 c79 -4 102 -9
141 -33z"/>
<path d="M7589 1813 c-6 -16 -50 -131 -98 -258 -77 -201 -91 -230 -112 -235
-13 -3 -25 -14 -27 -23 -3 -15 7 -17 87 -17 71 0 91 3 91 14 0 15 -21 26 -51
26 -22 0 -21 10 7 78 l13 32 126 0 126 0 13 -32 c28 -68 29 -78 7 -78 -30 0
-51 -11 -51 -26 0 -20 181 -16 188 4 2 7 -9 15 -27 18 -26 6 -33 14 -51 63
-182 487 -171 461 -202 461 -22 0 -31 -6 -39 -27z m140 -315 l11 -28 -115 0
-114 0 26 68 c14 37 39 107 56 155 l30 88 47 -128 c26 -70 53 -140 59 -155z"/>
<path d="M7880 1826 c0 -7 12 -16 28 -19 24 -5 36 -25 105 -169 76 -160 77
-164 77 -240 l0 -78 -27 0 c-35 0 -58 -14 -49 -29 5 -7 43 -11 102 -11 86 0
95 2 92 18 -2 11 -14 18 -36 20 l-32 3 0 85 0 84 78 156 c67 135 81 156 105
161 15 3 27 12 27 19 0 11 -20 14 -90 14 -70 0 -90 -3 -90 -14 0 -8 15 -17 34
-20 l35 -7 -30 -64 c-16 -36 -43 -95 -60 -132 l-32 -68 -52 111 c-73 153 -72
151 -35 159 16 4 30 13 30 21 0 11 -19 14 -90 14 -70 0 -90 -3 -90 -14z"/>
<path d="M6486 943 c-77 -159 -179 -382 -227 -498 -85 -203 -87 -210 -66 -216
12 -3 93 -19 180 -34 130 -24 157 -32 157 -46 0 -19 20 -29 56 -29 13 0 24 -4
24 -9 0 -5 -6 -9 -12 -8 -7 0 -78 -1 -157 -1 l-145 -2 28 -29 c34 -35 39 -36
265 -56 l181 -17 43 25 c23 14 50 39 60 57 l19 31 -132 -2 c-72 0 -134 2 -137
5 -4 3 19 6 51 6 98 0 130 30 171 162 32 104 20 145 -136 463 l-79 160 -2 163
-3 162 -139 -287z m163 -259 c-4 -82 -7 -238 -8 -346 l-1 -197 33 -4 c31 -4
31 -4 -5 -5 l-38 -2 0 233 c0 253 10 494 19 479 3 -6 3 -77 0 -158z m25 110
c3 -8 2 -12 -4 -9 -6 3 -10 10 -10 16 0 14 7 11 14 -7z m20 -40 c3 -8 2 -12
-4 -9 -6 3 -10 10 -10 16 0 14 7 11 14 -7z m55 -119 c0 -5 -11 10 -24 35 -13
25 -24 50 -24 55 0 6 11 -10 24 -35 13 -25 24 -49 24 -55z m-41 30 c-3 -3 -9
2 -12 12 -6 14 -5 15 5 6 7 -7 10 -15 7 -18z m-21 -37 c-3 -8 -6 -5 -6 6 -1
11 2 17 5 13 3 -3 4 -12 1 -19z m42 -57 c1 -48 -5 -35 -12 24 -4 32 -3 43 3
30 5 -11 9 -35 9 -54z m-32 -93 c-2 -24 -4 -5 -4 42 0 47 2 66 4 43 2 -24 2
-62 0 -85z m77 106 c3 -8 2 -12 -4 -9 -6 3 -10 10 -10 16 0 14 7 11 14 -7z
m-47 -126 c-2 -13 -4 -3 -4 22 0 25 2 35 4 23 2 -13 2 -33 0 -45z m96 -58 l6
-45 -13 50 c-7 28 -16 61 -19 75 -5 20 -4 19 7 -5 8 -16 16 -50 19 -75z m-18
-121 c-8 -19 -13 -25 -9 -14 3 11 9 36 12 55 5 25 7 29 10 14 2 -12 -4 -37
-13 -55z m-22 -54 c-3 -9 -8 -14 -10 -11 -3 3 -2 9 2 15 9 16 15 13 8 -4z
m-28 -55 c-10 -11 -23 -20 -28 -20 -6 0 1 10 14 23 29 28 40 25 14 -3z m-145
-28 c0 -5 -13 -7 -30 -4 -16 2 -30 6 -30 8 0 2 14 4 30 4 17 0 30 -4 30 -8z"/>
</g>
</svg>
